<svg width="118" height="90" viewBox="0 0 118 90" fill="none" xmlns="http://www.w3.org/2000/svg">
<path d="M36.1413 66.2991L36.0233 65.9311C35.5213 64.3731 33.9443 62.8371 32.1663 62.9941L31.8563 63.0211C30.9203 63.1041 30.1583 63.4451 29.5643 63.9401C25.3873 64.6271 19.0943 63.1651 15.9723 61.4491C11.0303 58.7331 8.83725 52.9821 8.19525 47.6371C7.57125 42.4481 8.28726 36.5211 12.0933 32.6141C16.1053 28.4961 22.8623 27.9981 25.8463 33.5281C28.2923 38.0601 35.2013 34.0261 32.7543 29.4901C28.9513 22.4411 20.4023 19.6241 13.0103 22.5381C4.81926 25.7671 0.528255 34.2531 0.0532555 42.6711C-0.411745 50.9161 2.14626 60.4761 8.59726 66.0071C11.8983 68.8371 15.9243 70.3961 20.1833 71.0881C23.9693 71.7031 29.6993 72.6401 33.3493 71.2191C35.2933 70.4621 36.8593 68.5281 36.1413 66.2991Z" fill="#07A4A8"/>
<path d="M22.2969 15.5991L29.1929 75.0981C29.5179 78.3511 31.5779 81.1731 34.5769 82.4741C57.2049 92.2911 82.8889 92.2911 105.516 82.4741C108.515 81.1731 110.575 78.3511 110.9 75.0981L117.796 15.5991H22.2969Z" fill="#00B6C4"/>
<path d="M34.5808 82.4751C47.7168 88.1741 61.8828 90.5581 75.8838 89.6401C65.7678 88.9771 55.7388 86.5931 46.2478 82.4751C43.2488 81.1741 41.1888 78.3521 40.8638 75.0991L33.9678 15.6001H22.3008L29.1968 75.0991C29.5218 78.3521 31.5818 81.1741 34.5808 82.4751Z" fill="#07A4A8"/>
<path opacity="0.3" d="M108.362 33.1653C108.255 35.5063 108.016 37.8243 107.616 40.1333C107.18 42.6513 111.034 43.7323 111.473 41.1963C111.934 38.5373 112.239 35.8613 112.362 33.1653C112.479 30.5923 108.479 30.5983 108.362 33.1653Z" fill="white"/>
<path opacity="0.3" d="M106.82 48.3261C106.049 56.0491 105.279 63.7721 104.508 71.4951C104.253 74.0541 108.254 74.0371 108.508 71.4951C109.279 63.7721 110.049 56.0491 110.82 48.3261C111.075 45.7671 107.073 45.7851 106.82 48.3261Z" fill="white"/>
<path d="M70.0469 0C42.8249 0 22.2969 6.706 22.2969 15.6C22.2969 16.666 22.5979 17.736 23.1919 18.781C23.2359 18.858 23.2829 18.932 23.3359 19.004C27.7979 26.302 46.5479 31.2 70.0469 31.2C70.9989 31.2 71.9409 31.189 72.8839 31.171L73.5679 31.157C74.4969 31.136 75.4219 31.11 76.3349 31.073L76.4329 31.069C77.3239 31.032 78.2029 30.986 79.0779 30.934L79.7149 30.896C80.5909 30.84 81.4599 30.78 82.3159 30.71C82.3939 30.707 82.4809 30.7 82.5719 30.688C83.3959 30.619 84.2079 30.542 85.0169 30.46L85.5689 30.403C86.4319 30.312 87.2859 30.214 88.1219 30.109L88.2289 30.095C89.0449 29.991 89.8459 29.879 90.6359 29.762L91.0859 29.695C91.9129 29.569 92.7279 29.438 93.5849 29.287C94.3689 29.149 95.1339 29.002 95.8899 28.851L96.2289 28.782C97.0119 28.622 97.7789 28.456 98.5579 28.275C99.2979 28.103 100.017 27.923 100.714 27.74L100.953 27.677C102.405 27.29 103.787 26.872 105.056 26.438L105.222 26.382C106.536 25.929 107.773 25.442 108.899 24.936C108.918 24.928 108.939 24.918 108.963 24.908C108.975 24.903 108.988 24.897 109 24.892C109.594 24.623 110.152 24.351 110.659 24.085C113.576 22.558 115.627 20.849 116.755 19.008C116.809 18.933 116.859 18.857 116.902 18.779C117.496 17.733 117.797 16.663 117.797 15.599C117.797 6.706 97.2689 0 70.0469 0Z" fill="#18E5EA"/>
<path d="M70.045 6.92121C91.994 6.92121 110.202 11.6022 113.689 17.7422C114.085 17.0452 114.301 16.3302 114.301 15.6002C114.301 8.44121 94.487 2.63721 70.045 2.63721C45.603 2.63721 25.7891 8.44121 25.7891 15.6002C25.7891 16.3302 26.0051 17.0452 26.4011 17.7422C29.8891 11.6022 48.096 6.92121 70.045 6.92121Z" fill="#C4C4C4"/>
<path d="M70.0471 6.9209C48.1101 6.9209 29.9122 11.5969 26.4102 17.7319C29.8842 23.8759 48.0872 28.5629 70.0471 28.5629C92.0071 28.5629 110.21 23.8759 113.684 17.7319C110.183 11.5969 91.9841 6.9209 70.0471 6.9209Z" fill="white"/>
<path d="M108.667 21.919C109.433 20.625 109.513 19.291 108.006 18.209C103.529 14.996 94.2492 17.88 83.5492 16.808C72.8492 15.737 85.7332 10.793 61.7122 10.189C50.6162 9.90997 39.4321 11.847 30.5721 14.027C28.5851 15.174 27.1592 16.419 26.4102 17.731C29.8842 23.875 48.0872 28.562 70.0471 28.562C86.6511 28.563 101.102 25.882 108.667 21.919Z" fill="white"/>
</svg>
